<?xml version="1.0" encoding="UTF-8" standalone="no"?>
<!DOCTYPE svg PUBLIC "-//W3C//DTD SVG 1.1//EN"
 "http://www.w3.org/Graphics/SVG/1.1/DTD/svg11.dtd">
<!-- Generated by graphviz version 2.43.0 (0)
 -->
<!-- Title: Mockify_ERD_Enhanced Pages: 1 -->
<svg width="862pt" height="613pt"
 viewBox="0.00 0.00 862.00 613.00" xmlns="http://www.w3.org/2000/svg" xmlns:xlink="http://www.w3.org/1999/xlink">
<g id="graph0" class="graph" transform="scale(1 1) rotate(0) translate(4 609)">
<title>Mockify_ERD_Enhanced</title>
<polygon fill="white" stroke="transparent" points="-4,4 -4,-609 858,-609 858,4 -4,4"/>
<text text-anchor="middle" x="427" y="-573.8" font-family="Helvetica,sans-Serif" font-size="14.00">Mockify Platform Entity Relationship Diagram (ERD)</text>
<text text-anchor="middle" x="427" y="-542.8" font-family="Helvetica,sans-Serif" font-size="14.00">Cardinality (near nodes): 1 (One), * (Many)</text>
<!-- Questions -->
<g id="node1" class="node">
<title>Questions</title>
<path fill="#ffebea" stroke="black" d="M457,-5.5C457,-5.5 587,-5.5 587,-5.5 593,-5.5 599,-11.5 599,-17.5 599,-17.5 599,-193.5 599,-193.5 599,-199.5 593,-205.5 587,-205.5 587,-205.5 457,-205.5 457,-205.5 451,-205.5 445,-199.5 445,-193.5 445,-193.5 445,-17.5 445,-17.5 445,-11.5 451,-5.5 457,-5.5"/>
<text text-anchor="start" x="474" y="-182.9" font-family="Helvetica,sans-Serif" font-weight="bold" font-size="12.00">Questions</text>
<text text-anchor="start" x="474" y="-172.5" font-family="Helvetica,sans-Serif" font-size="10.00">**question_id (PK)**</text>
<text text-anchor="start" x="474" y="-162.5" font-family="Helvetica,sans-Serif" font-size="10.00">exam</text>
<text text-anchor="start" x="474" y="-152.5" font-family="Helvetica,sans-Serif" font-size="10.00">q_num</text>
<text text-anchor="start" x="474" y="-142.5" font-family="Helvetica,sans-Serif" font-size="10.00">*subject_id (FK)*</text>
<text text-anchor="start" x="474" y="-132.5" font-family="Helvetica,sans-Serif" font-size="10.00">*chapter_id (FK)*</text>
<text text-anchor="start" x="474" y="-122.5" font-family="Helvetica,sans-Serif" font-size="10.00">difficulty</text>
<text text-anchor="start" x="474" y="-112.5" font-family="Helvetica,sans-Serif" font-size="10.00">question_text</text>
<text text-anchor="start" x="474" y="-102.5" font-family="Helvetica,sans-Serif" font-size="10.00">options (array)</text>
<text text-anchor="start" x="474" y="-92.5" font-family="Helvetica,sans-Serif" font-size="10.00">correct_answer_index</text>
<text text-anchor="start" x="474" y="-82.5" font-family="Helvetica,sans-Serif" font-size="10.00">solution_explanation</text>
<text text-anchor="start" x="474" y="-72.5" font-family="Helvetica,sans-Serif" font-size="10.00">marks</text>
<text text-anchor="start" x="474" y="-62.5" font-family="Helvetica,sans-Serif" font-size="10.00">negative_marks</text>
<text text-anchor="start" x="474" y="-52.5" font-family="Helvetica,sans-Serif" font-size="10.00">source</text>
<text text-anchor="start" x="474" y="-42.5" font-family="Helvetica,sans-Serif" font-size="10.00">is_active</text>
<text text-anchor="start" x="474" y="-32.5" font-family="Helvetica,sans-Serif" font-size="10.00">created_at</text>
<text text-anchor="start" x="497.5" y="-22.5" font-family="Helvetica,sans-Serif" font-size="10.00">updated_at</text>
</g>
<!-- Coaching -->
<g id="node2" class="node">
<title>Coaching</title>
<path fill="#fffacd" stroke="black" d="M12,-366.5C12,-366.5 106,-366.5 106,-366.5 112,-366.5 118,-372.5 118,-378.5 118,-378.5 118,-420.5 118,-420.5 118,-426.5 112,-432.5 106,-432.5 106,-432.5 12,-432.5 12,-432.5 6,-432.5 0,-426.5 0,-420.5 0,-420.5 0,-378.5 0,-378.5 0,-372.5 6,-366.5 12,-366.5"/>
<text text-anchor="start" x="14" y="-416.9" font-family="Helvetica,sans-Serif" font-weight="bold" font-size="12.00">Coaching</text>
<text text-anchor="start" x="14" y="-406.5" font-family="Helvetica,sans-Serif" font-size="10.00">**coaching_id (PK)**</text>
<text text-anchor="start" x="14" y="-396.5" font-family="Helvetica,sans-Serif" font-size="10.00">name</text>
<text text-anchor="start" x="14" y="-386.5" font-family="Helvetica,sans-Serif" font-size="10.00">logo_url</text>
<text text-anchor="start" x="36" y="-376.5" font-family="Helvetica,sans-Serif" font-size="10.00">created_at</text>
</g>
<!-- Users -->
<g id="node3" class="node">
<title>Users</title>
<path fill="#fffacd" stroke="black" d="M241.5,-346.5C241.5,-346.5 327.5,-346.5 327.5,-346.5 333.5,-346.5 339.5,-352.5 339.5,-358.5 339.5,-358.5 339.5,-440.5 339.5,-440.5 339.5,-446.5 333.5,-452.5 327.5,-452.5 327.5,-452.5 241.5,-452.5 241.5,-452.5 235.5,-452.5 229.5,-446.5 229.5,-440.5 229.5,-440.5 229.5,-358.5 229.5,-358.5 229.5,-352.5 235.5,-346.5 241.5,-346.5"/>
<text text-anchor="start" x="243.5" y="-436.9" font-family="Helvetica,sans-Serif" font-weight="bold" font-size="12.00">Users</text>
<text text-anchor="start" x="243.5" y="-426.5" font-family="Helvetica,sans-Serif" font-size="10.00">**user_id (PK)**</text>
<text text-anchor="start" x="243.5" y="-416.5" font-family="Helvetica,sans-Serif" font-size="10.00">name</text>
<text text-anchor="start" x="243.5" y="-406.5" font-family="Helvetica,sans-Serif" font-size="10.00">email</text>
<text text-anchor="start" x="243.5" y="-396.5" font-family="Helvetica,sans-Serif" font-size="10.00">phone</text>
<text text-anchor="start" x="243.5" y="-386.5" font-family="Helvetica,sans-Serif" font-size="10.00">role</text>
<text text-anchor="start" x="243.5" y="-376.5" font-family="Helvetica,sans-Serif" font-size="10.00">*coaching_id (FK)*</text>
<text text-anchor="start" x="243.5" y="-366.5" font-family="Helvetica,sans-Serif" font-size="10.00">created_at</text>
<text text-anchor="start" x="260" y="-356.5" font-family="Helvetica,sans-Serif" font-size="10.00">updated_at</text>
</g>
<!-- Coaching&#45;&gt;Users -->
<g id="edge1" class="edge">
<title>Coaching&#45;&gt;Users</title>
<path fill="none" stroke="black" d="M118.14,-399.5C149.18,-399.5 187.46,-399.5 219.37,-399.5"/>
<polygon fill="black" stroke="black" points="229.49,-399.5 219.49,-404 224.49,-399.5 219.49,-399.5 219.49,-399.5 219.49,-399.5 224.49,-399.5 219.49,-395 229.49,-399.5 229.49,-399.5"/>
<text text-anchor="middle" x="173.5" y="-402.3" font-family="Helvetica,sans-Serif" font-size="9.00">manages</text>
<text text-anchor="middle" x="226.49" y="-392.3" font-family="Helvetica,sans-Serif" font-size="9.00">1</text>
<text text-anchor="middle" x="120.14" y="-392.3" font-family="Helvetica,sans-Serif" font-size="9.00">*</text>
</g>
<!-- Tests -->
<g id="node6" class="node">
<title>Tests</title>
<path fill="#fffacd" stroke="black" d="M479,-346.5C479,-346.5 565,-346.5 565,-346.5 571,-346.5 577,-352.5 577,-358.5 577,-358.5 577,-440.5 577,-440.5 577,-446.5 571,-452.5 565,-452.5 565,-452.5 479,-452.5 479,-452.5 473,-452.5 467,-446.5 467,-440.5 467,-440.5 467,-358.5 467,-358.5 467,-352.5 473,-346.5 479,-346.5"/>
<text text-anchor="start" x="481" y="-436.9" font-family="Helvetica,sans-Serif" font-weight="bold" font-size="12.00">Tests</text>
<text text-anchor="start" x="481" y="-426.5" font-family="Helvetica,sans-Serif" font-size="10.00">**test_id (PK)**</text>
<text text-anchor="start" x="481" y="-416.5" font-family="Helvetica,sans-Serif" font-size="10.00">*user_id (FK)*</text>
<text text-anchor="start" x="481" y="-406.5" font-family="Helvetica,sans-Serif" font-size="10.00">title</text>
<text text-anchor="start" x="481" y="-396.5" font-family="Helvetica,sans-Serif" font-size="10.00">subject_ids (array)</text>
<text text-anchor="start" x="481" y="-386.5" font-family="Helvetica,sans-Serif" font-size="10.00">chapter_ids (array)</text>
<text text-anchor="start" x="481" y="-376.5" font-family="Helvetica,sans-Serif" font-size="10.00">difficulty_filter</text>
<text text-anchor="start" x="481" y="-366.5" font-family="Helvetica,sans-Serif" font-size="10.00">num_questions</text>
<text text-anchor="start" x="499" y="-356.5" font-family="Helvetica,sans-Serif" font-size="10.00">created_at</text>
</g>
<!-- Users&#45;&gt;Tests -->
<g id="edge5" class="edge">
<title>Users&#45;&gt;Tests</title>
<path fill="none" stroke="black" d="M339.53,-399.5C374.41,-399.5 419.96,-399.5 456.7,-399.5"/>
<polygon fill="black" stroke="black" points="466.82,-399.5 456.82,-404 461.82,-399.5 456.82,-399.5 456.82,-399.5 456.82,-399.5 461.82,-399.5 456.82,-395 466.82,-399.5 466.82,-399.5"/>
<text text-anchor="middle" x="392.5" y="-402.3" font-family="Helvetica,sans-Serif" font-size="9.00">creates</text>
<text text-anchor="middle" x="463.82" y="-392.3" font-family="Helvetica,sans-Serif" font-size="9.00">1</text>
<text text-anchor="middle" x="341.53" y="-392.3" font-family="Helvetica,sans-Serif" font-size="9.00">*</text>
</g>
<!-- TestResponses -->
<g id="node7" class="node">
<title>TestResponses</title>
<path fill="#fffacd" stroke="black" d="M736,-448.5C736,-448.5 831,-448.5 831,-448.5 837,-448.5 843,-454.5 843,-460.5 843,-460.5 843,-522.5 843,-522.5 843,-528.5 837,-534.5 831,-534.5 831,-534.5 736,-534.5 736,-534.5 730,-534.5 724,-528.5 724,-522.5 724,-522.5 724,-460.5 724,-460.5 724,-454.5 730,-448.5 736,-448.5"/>
<text text-anchor="start" x="738" y="-518.9" font-family="Helvetica,sans-Serif" font-weight="bold" font-size="12.00">TestResponses</text>
<text text-anchor="start" x="738" y="-508.5" font-family="Helvetica,sans-Serif" font-size="10.00">**response_id (PK)**</text>
<text text-anchor="start" x="738" y="-498.5" font-family="Helvetica,sans-Serif" font-size="10.00">*test_id (FK)*</text>
<text text-anchor="start" x="738" y="-488.5" font-family="Helvetica,sans-Serif" font-size="10.00">*user_id (FK)*</text>
<text text-anchor="start" x="738" y="-478.5" font-family="Helvetica,sans-Serif" font-size="10.00">answers (map)</text>
<text text-anchor="start" x="738" y="-468.5" font-family="Helvetica,sans-Serif" font-size="10.00">score</text>
<text text-anchor="start" x="760.5" y="-458.5" font-family="Helvetica,sans-Serif" font-size="10.00">created_at</text>
</g>
<!-- Users&#45;&gt;TestResponses -->
<g id="edge7" class="edge">
<title>Users&#45;&gt;TestResponses</title>
<path fill="none" stroke="black" d="M339.63,-431.42C369.62,-447.42 408.19,-465.3 445,-474.5 535.82,-497.2 644.54,-498.21 713.56,-495.74"/>
<polygon fill="black" stroke="black" points="723.87,-495.34 714.05,-500.23 718.87,-495.54 713.88,-495.73 713.88,-495.73 713.88,-495.73 718.87,-495.54 713.7,-491.24 723.87,-495.34 723.87,-495.34"/>
<text text-anchor="middle" x="522" y="-497.3" font-family="Helvetica,sans-Serif" font-size="9.00">submits</text>
<text text-anchor="middle" x="720.87" y="-488.14" font-family="Helvetica,sans-Serif" font-size="9.00">1</text>
<text text-anchor="middle" x="341.63" y="-424.22" font-family="Helvetica,sans-Serif" font-size="9.00">*</text>
</g>
<!-- Analytics -->
<g id="node8" class="node">
<title>Analytics</title>
<path fill="#fffacd" stroke="black" d="M725,-278.5C725,-278.5 842,-278.5 842,-278.5 848,-278.5 854,-284.5 854,-290.5 854,-290.5 854,-352.5 854,-352.5 854,-358.5 848,-364.5 842,-364.5 842,-364.5 725,-364.5 725,-364.5 719,-364.5 713,-358.5 713,-352.5 713,-352.5 713,-290.5 713,-290.5 713,-284.5 719,-278.5 725,-278.5"/>
<text text-anchor="start" x="727" y="-348.9" font-family="Helvetica,sans-Serif" font-weight="bold" font-size="12.00">Analytics</text>
<text text-anchor="start" x="727" y="-338.5" font-family="Helvetica,sans-Serif" font-size="10.00">**analytics_id (PK)**</text>
<text text-anchor="start" x="727" y="-328.5" font-family="Helvetica,sans-Serif" font-size="10.00">*user_id (FK)*</text>
<text text-anchor="start" x="727" y="-318.5" font-family="Helvetica,sans-Serif" font-size="10.00">*test_id (FK)*</text>
<text text-anchor="start" x="727" y="-308.5" font-family="Helvetica,sans-Serif" font-size="10.00">subject_breakdown (map)</text>
<text text-anchor="start" x="727" y="-298.5" font-family="Helvetica,sans-Serif" font-size="10.00">chapter_breakdown (map)</text>
<text text-anchor="start" x="760.5" y="-288.5" font-family="Helvetica,sans-Serif" font-size="10.00">created_at</text>
</g>
<!-- Users&#45;&gt;Analytics -->
<g id="edge9" class="edge">
<title>Users&#45;&gt;Analytics</title>
<path fill="none" stroke="black" d="M339.6,-362.09C369.27,-343.84 407.56,-323.85 445,-314.5 531.17,-292.97 633.59,-299.39 702.83,-308.2"/>
<polygon fill="black" stroke="black" points="712.79,-309.52 702.29,-312.67 707.84,-308.86 702.88,-308.21 702.88,-308.21 702.88,-308.21 707.84,-308.86 703.47,-303.75 712.79,-309.52 712.79,-309.52"/>
<text text-anchor="middle" x="522" y="-317.3" font-family="Helvetica,sans-Serif" font-size="9.00">tracks for</text>
<text text-anchor="middle" x="709.79" y="-302.32" font-family="Helvetica,sans-Serif" font-size="9.00">1</text>
<text text-anchor="middle" x="341.6" y="-354.89" font-family="Helvetica,sans-Serif" font-size="9.00">*</text>
</g>
<!-- Subjects -->
<g id="node4" class="node">
<title>Subjects</title>
<path fill="#fffacd" stroke="black" d="M16,-82.5C16,-82.5 102,-82.5 102,-82.5 108,-82.5 114,-88.5 114,-94.5 114,-94.5 114,-116.5 114,-116.5 114,-122.5 108,-128.5 102,-128.5 102,-128.5 16,-128.5 16,-128.5 10,-128.5 4,-122.5 4,-116.5 4,-116.5 4,-94.5 4,-94.5 4,-88.5 10,-82.5 16,-82.5"/>
<text text-anchor="start" x="18" y="-112.9" font-family="Helvetica,sans-Serif" font-weight="bold" font-size="12.00">Subjects</text>
<text text-anchor="start" x="18" y="-102.5" font-family="Helvetica,sans-Serif" font-size="10.00">**subject_id (PK)**</text>
<text text-anchor="start" x="46.5" y="-92.5" font-family="Helvetica,sans-Serif" font-size="10.00">name</text>
</g>
<!-- Subjects&#45;&gt;Questions -->
<g id="edge4" class="edge">
<title>Subjects&#45;&gt;Questions</title>
<path fill="none" stroke="black" d="M114.24,-105.5C193.24,-105.5 340.75,-105.5 434.75,-105.5"/>
<polygon fill="black" stroke="black" points="444.8,-105.5 434.8,-110 439.8,-105.5 434.8,-105.5 434.8,-105.5 434.8,-105.5 439.8,-105.5 434.8,-101 444.8,-105.5 444.8,-105.5"/>
<text text-anchor="middle" x="284.5" y="-108.3" font-family="Helvetica,sans-Serif" font-size="9.00">is about</text>
<text text-anchor="middle" x="441.8" y="-98.3" font-family="Helvetica,sans-Serif" font-size="9.00">1</text>
<text text-anchor="middle" x="116.24" y="-98.3" font-family="Helvetica,sans-Serif" font-size="9.00">*</text>
</g>
<!-- Chapters -->
<g id="node5" class="node">
<title>Chapters</title>
<path fill="#fffacd" stroke="black" d="M241,-0.5C241,-0.5 328,-0.5 328,-0.5 334,-0.5 340,-6.5 340,-12.5 340,-12.5 340,-44.5 340,-44.5 340,-50.5 334,-56.5 328,-56.5 328,-56.5 241,-56.5 241,-56.5 235,-56.5 229,-50.5 229,-44.5 229,-44.5 229,-12.5 229,-12.5 229,-6.5 235,-0.5 241,-0.5"/>
<text text-anchor="start" x="243" y="-40.9" font-family="Helvetica,sans-Serif" font-weight="bold" font-size="12.00">Chapters</text>
<text text-anchor="start" x="243" y="-30.5" font-family="Helvetica,sans-Serif" font-size="10.00">**chapter_id (PK)**</text>
<text text-anchor="start" x="243" y="-20.5" font-family="Helvetica,sans-Serif" font-size="10.00">*subject_id (FK)*</text>
<text text-anchor="start" x="272" y="-10.5" font-family="Helvetica,sans-Serif" font-size="10.00">name</text>
</g>
<!-- Subjects&#45;&gt;Chapters -->
<g id="edge2" class="edge">
<title>Subjects&#45;&gt;Chapters</title>
<path fill="none" stroke="black" d="M114.1,-86.86C145.73,-75.96 185.85,-62.14 219.1,-50.69"/>
<polygon fill="black" stroke="black" points="228.73,-47.37 220.74,-54.88 224,-49 219.28,-50.63 219.28,-50.63 219.28,-50.63 224,-49 217.81,-46.37 228.73,-47.37 228.73,-47.37"/>
<text text-anchor="middle" x="173.5" y="-75.3" font-family="Helvetica,sans-Serif" font-size="9.00">has</text>
<text text-anchor="middle" x="225.73" y="-40.17" font-family="Helvetica,sans-Serif" font-size="9.00">1</text>
<text text-anchor="middle" x="116.1" y="-79.66" font-family="Helvetica,sans-Serif" font-size="9.00">*</text>
</g>
<!-- Chapters&#45;&gt;Questions -->
<g id="edge3" class="edge">
<title>Chapters&#45;&gt;Questions</title>
<path fill="none" stroke="black" d="M340.12,-46.36C368.32,-55.58 403.38,-67.04 435.1,-77.41"/>
<polygon fill="black" stroke="black" points="444.82,-80.59 433.92,-81.76 440.07,-79.04 435.32,-77.49 435.32,-77.49 435.32,-77.49 440.07,-79.04 436.72,-73.21 444.82,-80.59 444.82,-80.59"/>
<text text-anchor="middle" x="392.5" y="-70.3" font-family="Helvetica,sans-Serif" font-size="9.00">is about</text>
<text text-anchor="middle" x="441.82" y="-73.39" font-family="Helvetica,sans-Serif" font-size="9.00">1</text>
<text text-anchor="middle" x="342.12" y="-39.16" font-family="Helvetica,sans-Serif" font-size="9.00">*</text>
</g>
<!-- Tests&#45;&gt;TestResponses -->
<g id="edge6" class="edge">
<title>Tests&#45;&gt;TestResponses</title>
<path fill="none" stroke="black" d="M577.08,-418.67C616.99,-432.82 671.58,-452.18 714.46,-467.38"/>
<polygon fill="black" stroke="black" points="723.97,-470.75 713.04,-471.65 719.26,-469.08 714.55,-467.41 714.55,-467.41 714.55,-467.41 719.26,-469.08 716.05,-463.17 723.97,-470.75 723.97,-470.75"/>
<text text-anchor="middle" x="656" y="-456.3" font-family="Helvetica,sans-Serif" font-size="9.00">results in</text>
<text text-anchor="middle" x="720.97" y="-463.55" font-family="Helvetica,sans-Serif" font-size="9.00">1</text>
<text text-anchor="middle" x="579.08" y="-411.47" font-family="Helvetica,sans-Serif" font-size="9.00">*</text>
</g>
<!-- Tests&#45;&gt;Analytics -->
<g id="edge8" class="edge">
<title>Tests&#45;&gt;Analytics</title>
<path fill="none" stroke="black" d="M577.08,-383.24C613.53,-372.29 662.21,-357.66 703.03,-345.39"/>
<polygon fill="black" stroke="black" points="712.69,-342.48 704.41,-349.67 707.9,-343.92 703.11,-345.36 703.11,-345.36 703.11,-345.36 707.9,-343.92 701.82,-341.05 712.69,-342.48 712.69,-342.48"/>
<text text-anchor="middle" x="656" y="-368.3" font-family="Helvetica,sans-Serif" font-size="9.00">generates</text>
<text text-anchor="middle" x="709.69" y="-335.28" font-family="Helvetica,sans-Serif" font-size="9.00">1</text>
<text text-anchor="middle" x="579.08" y="-376.04" font-family="Helvetica,sans-Serif" font-size="9.00">*</text>
</g>
</g>
</svg>
